<svg width="512" height="512" fill="none" xmlns="http://www.w3.org/2000/svg"><path fill="#083344" d="M0 0h512v512H0z"/><path d="M256 224.5a31.5 31.5 0 0 0-31.5 31.5c0 16.065-1.575 39.532-4.095 63M287.5 273.64c0 37.485 0 100.485-15.75 139.86M339.317 398.065c1.89-9.45 6.773-36.225 7.875-47.565M98.5 256a157.505 157.505 0 0 1 107.694-149.418A157.503 157.503 0 0 1 382 161.5M98.5 319h.157M410.35 319c3.15-31.5 2.063-84.325 0-94.5" stroke="#22D3EE" stroke-width="20" stroke-linecap="round" stroke-linejoin="round"/><path d="M145.75 374.125C153.625 350.5 161.5 303.25 161.5 256a94.498 94.498 0 0 1 5.355-31.5M203.237 413.5c3.308-10.395 7.088-20.79 8.978-31.5M208.75 174.1a94.504 94.504 0 0 1 94.526.015A94.5 94.5 0 0 1 350.5 256v31.5" stroke="#22D3EE" stroke-width="20" stroke-linecap="round" stroke-linejoin="round"/></svg>